<?xml version="1.0" encoding="UTF-8"?>
<svg id="Layer_1" xmlns="http://www.w3.org/2000/svg" version="1.1" viewBox="0 0 237.443 45.226">
  <!-- Generator: Adobe Illustrator 29.4.0, SVG Export Plug-In . SVG Version: 2.1.0 Build 152)  -->
  <g>
    <path d="M68.182,10.39c3.321,0,5.917.671,7.785,2.012s2.914,3.306,3.138,5.893h-6.468c-.096-1.182-.526-2.037-1.293-2.563s-1.885-.791-3.354-.791c-1.278,0-2.229.192-2.851.575-.623.383-.935.958-.935,1.725,0,.575.207,1.054.623,1.437.414.383,1.046.719,1.892,1.006.847.288,1.78.527,2.803.719,3.098.607,5.286,1.23,6.564,1.868,1.276.64,2.211,1.406,2.803,2.3.59.895.886,1.997.886,3.306,0,2.779-1.015,4.911-3.042,6.396-2.028,1.485-4.783,2.228-8.265,2.228-3.641,0-6.476-.782-8.504-2.348-2.028-1.564-3.074-3.689-3.138-6.372h6.468c0,1.278.494,2.292,1.485,3.042.989.75,2.235,1.125,3.736,1.125,1.277,0,2.34-.279,3.187-.838.846-.558,1.27-1.333,1.27-2.323,0-.639-.264-1.166-.791-1.581-.526-.415-1.27-.782-2.228-1.102-.958-.319-2.443-.687-4.456-1.102-1.597-.319-3.018-.75-4.264-1.293-1.245-.543-2.196-1.253-2.851-2.132-.655-.878-.982-1.956-.982-3.234,0-1.629.392-3.05,1.174-4.264.782-1.213,1.98-2.132,3.594-2.755,1.612-.623,3.617-.934,6.013-.934Z"/>
    <path d="M94.968,10.39c3.354,0,6.084.855,8.192,2.563,2.108,1.709,3.258,3.985,3.449,6.827h-6.659c-.447-2.842-2.124-4.264-5.03-4.264-1.789,0-3.202.735-4.24,2.204-1.038,1.47-1.557,3.418-1.557,5.845,0,2.332.494,4.216,1.485,5.653.989,1.437,2.379,2.156,4.168,2.156,3.098,0,4.902-1.677,5.413-5.031h6.564c-.448,3.29-1.718,5.806-3.81,7.546-2.092,1.741-4.799,2.611-8.12,2.611-3.674,0-6.676-1.174-9.007-3.521-2.332-2.348-3.498-5.406-3.498-9.175,0-4.088,1.15-7.346,3.45-9.773,2.299-2.427,5.365-3.641,9.198-3.641Z"/>
    <path d="M124.649,10.39c.575,0,1.07.08,1.485.24v6.324c-.735-.159-1.55-.239-2.443-.239-4.472,0-6.707,2.651-6.707,7.953v11.163h-6.804V11.061h6.468v4.599h.096c.671-1.597,1.732-2.875,3.187-3.833,1.453-.958,3.025-1.437,4.719-1.437Z"/>
    <path d="M136.248,11.061v14.037c0,1.917.303,3.402.91,4.456.606,1.054,1.756,1.581,3.449,1.581,1.884,0,3.234-.558,4.049-1.677.814-1.118,1.222-2.906,1.222-5.366v-13.031h6.803v24.769h-6.468v-3.45h-.144c-1.693,2.748-4.232,4.121-7.618,4.121-3.226,0-5.533-.822-6.923-2.467-1.389-1.645-2.084-4.176-2.084-7.594v-15.379h6.804Z"/>
    <path d="M172.083,10.39c3.162,0,5.453.799,6.875,2.396,1.421,1.598,2.132,4.137,2.132,7.618v15.427h-6.803v-14.038c0-2.043-.328-3.561-.982-4.551-.655-.99-1.781-1.485-3.378-1.485-1.853,0-3.194.559-4.024,1.677-.831,1.119-1.245,2.955-1.245,5.51v12.888h-6.804V11.061h6.468v3.449h.144c1.693-2.747,4.232-4.12,7.618-4.12Z"/>
    <path d="M197.185,10.39c3.354,0,6.084.855,8.192,2.563,2.108,1.709,3.258,3.985,3.449,6.827h-6.659c-.447-2.842-2.124-4.264-5.03-4.264-1.789,0-3.202.735-4.24,2.204-1.038,1.47-1.557,3.418-1.557,5.845,0,2.332.494,4.216,1.485,5.653.989,1.437,2.379,2.156,4.168,2.156,3.098,0,4.902-1.677,5.413-5.031h6.564c-.448,3.29-1.718,5.806-3.81,7.546-2.092,1.741-4.799,2.611-8.12,2.611-3.674,0-6.676-1.174-9.007-3.521-2.332-2.348-3.498-5.406-3.498-9.175,0-4.088,1.15-7.346,3.45-9.773,2.299-2.427,5.365-3.641,9.198-3.641Z"/>
    <path d="M219.495,1.623v12.888h.144c.767-1.277,1.804-2.283,3.114-3.018,1.309-.734,2.698-1.102,4.168-1.102,3.162,0,5.453.799,6.875,2.396,1.421,1.598,2.132,4.12,2.132,7.57v15.475h-6.803v-14.085c0-2.012-.328-3.513-.982-4.503-.655-.99-1.781-1.485-3.378-1.485-1.82,0-3.154.551-4,1.653-.847,1.102-1.27,2.915-1.27,5.438v12.983h-6.804V1.623h6.804Z"/>
  </g>
  <g>
    <polygon points="18.172 16.527 24.086 .55 29.992 16.527 45.964 22.438 39.56 6.962 24.087 .55 8.613 6.952 2.199 22.433 18.172 16.527"/>
    <polygon points="18.172 28.347 2.199 22.434 8.603 37.899 24.076 44.31 18.172 28.347"/>
    <polygon points="29.992 28.347 24.076 44.31 39.549 37.909 45.964 22.438 45.964 22.438 29.992 28.347"/>
  </g>
</svg>